<svg xmlns="http://www.w3.org/2000/svg" viewBox="0 0 341.744 341.744"><defs><style>.a{fill:#274274;stroke:#b3b3b3;stroke-miterlimit:10;stroke-width:0.5px;}.b{fill:#fff;}</style></defs><g transform="translate(-421.346 -180.75)"><rect class="a" width="341.244" height="341.244" transform="translate(421.596 181)"/><g transform="translate(443.916 233.603)"><path class="b" d="M1164.9,335.6l-105.786,87.2a2.544,2.544,0,0,1-.091.556,2.454,2.454,0,0,0-.09.55v88.3a11.942,11.942,0,0,0,11.775,11.776h70.641V453.344h47.1V524h70.641a11.962,11.962,0,0,0,11.781-11.782v-88.3a2.563,2.563,0,0,0-.187-1.105Z" transform="translate(-1016.596 -287.955)"/><path class="b" d="M1346.481,442.694l-40.291-33.485V334.148a5.665,5.665,0,0,0-5.888-5.888h-35.32a5.663,5.663,0,0,0-5.887,5.888v35.876l-44.886-37.531a22.833,22.833,0,0,0-27.966,0l-132.277,110.2a5.332,5.332,0,0,0-2.024,3.955,5.936,5.936,0,0,0,1.286,4.324l11.407,13.617a6.275,6.275,0,0,0,3.859,2.023,6.876,6.876,0,0,0,4.419-1.286l127.309-106.161,127.308,106.161a5.7,5.7,0,0,0,3.865,1.28h.555a6.308,6.308,0,0,0,3.864-2.023l11.407-13.612a5.966,5.966,0,0,0,1.281-4.329A5.368,5.368,0,0,0,1346.481,442.694Z" transform="translate(-1051.92 -327.711)"/></g></g></svg>