<svg xmlns="http://www.w3.org/2000/svg" viewBox="0 0 341.74 341.74"><defs><style>.a{fill:#274274;stroke:#b3b3b3;stroke-miterlimit:10;stroke-width:0.5px;}.b{fill:#fff;}</style></defs><g transform="translate(-884.346 -556.75)"><rect class="a" width="341.24" height="341.24" transform="translate(884.596 557)"/><g transform="translate(913.593 589.077)"><path class="b" d="M1068.614,509.628l-10.489,123.149h49.253L1096.9,509.628Z" transform="translate(-1027.335 -411.102)"/><path class="b" d="M1097.156,509.628l-10.479,123.149h49.254l-10.489-123.149Z" transform="translate(-883.474 -411.102)"/><rect class="b" width="257.485" height="24.622" transform="translate(12.88 233.991)"/><rect class="b" width="283.246" height="12.316" transform="translate(0 264.771)"/><path class="b" d="M1152.561,588.717l21.286,20.96-8.955,105.308h49.251l-8.979-105.32,21.286-20.954v-9.2h98.538V558.952l-135.476-65.64-135.465,65.64v20.562h98.527l-.012,9.2Zm61.564-5.151-24.613,24.245-24.62-24.245V548.723h49.251v34.843Z" transform="translate(-1047.888 -493.312)"/></g></g></svg>