<svg xmlns="http://www.w3.org/2000/svg" viewBox="0 0 341.74 341.74"><defs><style>.a{fill:#274274;stroke:#b3b3b3;stroke-miterlimit:10;stroke-width:0.5px;}.b,.c{fill:#fff;}.c{font-size:45px;font-family:MyriadPro-Bold, Myriad Pro;font-weight:700;}</style></defs><g transform="translate(-631.346 -228.613)"><rect class="a" width="341.24" height="341.24" transform="translate(631.596 228.863)"/><g transform="translate(664.973 251.697)"><path class="b" d="M1282.422,517.815a5.5,5.5,0,0,0,5.522-5.493l.128-59.908a16.543,16.543,0,0,0-16.491-16.561l-200.508-.43a16.536,16.536,0,0,0-16.561,16.491l-.54,248.983a16.543,16.543,0,0,0,16.491,16.561l200.514.435a16.55,16.55,0,0,0,16.561-16.491l.087-40.583a5.508,5.508,0,1,0-11.015-.024l-.088,40.584a5.522,5.522,0,0,1-5.522,5.5l-200.514-.435a5.507,5.507,0,0,1-5.494-5.523l.535-248.983a5.518,5.518,0,0,1,5.522-5.5l200.508.43a5.523,5.523,0,0,1,5.5,5.522l-.128,59.909A5.5,5.5,0,0,0,1282.422,517.815Z" transform="translate(-1053.972 -435.423)"/><g transform="translate(66.505 29.963)"><path class="b" d="M1116.211,440.583a50.655,50.655,0,0,0-34.957,87.438,4.851,4.851,0,0,0,.593.552,50.575,50.575,0,0,0,68.352.145,5.813,5.813,0,0,0,.591-.546,50.652,50.652,0,0,0-34.579-87.589Zm-.192,90.336a39.416,39.416,0,0,1-23.941-8.13,27.54,27.54,0,0,1,47.911.1A39.408,39.408,0,0,1,1116.019,530.919Zm-8.728-41.884.011-3.577a8.812,8.812,0,1,1,17.624.035l-.006,3.583a8.815,8.815,0,1,1-17.63-.041Zm40.677,25.805a38.214,38.214,0,0,0-16.2-13.64,19.723,19.723,0,0,0,4.169-12.1l.006-3.577a19.83,19.83,0,1,0-39.66-.087l-.005,3.577a19.744,19.744,0,0,0,4.117,12.124,38.17,38.17,0,0,0-16.259,13.565,39.658,39.658,0,1,1,63.834.14Z" transform="translate(-1065.425 -440.583)"/></g><g transform="translate(163.966 69.199)"><path class="b" d="M1189.129,450.476a23.136,23.136,0,0,0-31.624,8.4l-69.577,119.922a5.476,5.476,0,0,0-.708,2.137l-4.977,43.7a5.509,5.509,0,0,0,8.734,5.063l35.468-26a5.545,5.545,0,0,0,1.5-1.678L1197.531,482.1A23.167,23.167,0,0,0,1189.129,450.476Zm-94.512,162.892,2.6-22.821,15.922,9.238Zm26.566-21.648-20.962-12.165,55.838-96.23,20.962,12.165ZM1188,476.566l-5.452,9.4L1161.588,473.8l5.447-9.39A12.119,12.119,0,0,1,1188,476.566Z" transform="translate(-1082.209 -447.34)"/></g><text class="c" transform="translate(15.213 176.083) rotate(0.123)"><tspan x="0" y="0">CAREERS</tspan><tspan x="0" y="53" xml:space="preserve"> /JOBS</tspan></text></g></g></svg>