<svg xmlns="http://www.w3.org/2000/svg" viewBox="0 0 341.744 341.744"><defs><style>.a{fill:#274274;stroke:#b3b3b3;stroke-miterlimit:10;stroke-width:0.5px;}.b{fill:#fff;}</style></defs><g transform="translate(-498.346 -722.612)"><rect class="a" width="341.244" height="341.244" transform="translate(498.596 722.862)"/><g transform="translate(533.757 765.275)"><path class="b" d="M1260.408,788.058l-45.67-30.447a4.706,4.706,0,0,0-6.293,1.02l-13.3,17.1a14.253,14.253,0,0,1-18.267,3.769l-2.457-1.353c-8.871-4.837-19.916-10.858-41.836-32.778s-27.941-32.966-32.778-41.836l-1.352-2.457a14.257,14.257,0,0,1,3.762-18.267l17.09-13.3a4.7,4.7,0,0,0,1.02-6.292l-30.441-45.677a4.686,4.686,0,0,0-6.293-1.419l-19.106,11.462a18.358,18.358,0,0,0-8.412,10.846c-6.281,22.85-1,62.869,59.783,123.661s100.792,66.076,123.667,59.8a18.41,18.41,0,0,0,10.846-8.424l11.449-19.107A4.674,4.674,0,0,0,1260.408,788.058Z" transform="translate(-1054.047 -567.488)"/><path class="b" d="M1280.548,608.287a2.633,2.633,0,0,0-1.891-.773H1075.9a2.639,2.639,0,0,0-1.89.773,2.594,2.594,0,0,0-.768,1.89v70.441l11.5,17.247a14.414,14.414,0,0,1-3.134,19.3l-17.077,13.3a4.618,4.618,0,0,0-1.244,5.912l1.389,2.542a122.3,122.3,0,0,0,16.147,23.539h197.833a2.647,2.647,0,0,0,2.664-2.6V610.177A2.624,2.624,0,0,0,1280.548,608.287Zm-137.483,88v-.024l-49.572,53.111a4.839,4.839,0,0,1-7.077-6.6l49.572-53.087a4.839,4.839,0,0,1,7.077,6.6Zm34.215-3.81a16.045,16.045,0,0,1-9.674-3.195l-80.882-61.329a4.85,4.85,0,0,1,5.876-7.718l80.846,61.336a6.536,6.536,0,0,0,7.675,0l80.87-61.336a4.842,4.842,0,0,1,5.851,7.718l-80.882,61.329A16.052,16.052,0,0,1,1177.28,692.479Zm90.937,57.132a4.842,4.842,0,0,1-6.842-.235l-49.566-53.111a4.839,4.839,0,0,1,7.089-6.576l49.554,53.087A4.837,4.837,0,0,1,1268.218,749.611Z" transform="translate(-1010.4 -607.514)"/></g></g></svg>