<svg xmlns="http://www.w3.org/2000/svg" viewBox="0 0 341.74 341.74"><defs><style>.a{fill:#274274;stroke:#b3b3b3;stroke-miterlimit:10;stroke-width:0.5px;}.b,.c{fill:#fff;}.c{font-size:63px;font-family:MyriadPro-Semibold, Myriad Pro;font-weight:600;}</style></defs><g transform="translate(-884.346 -706.475)"><rect class="a" width="341.24" height="341.24" transform="translate(884.596 706.725)"/><g transform="translate(911.297 744.157)"><path class="b" d="M1325.955,550.18H1115.364a14.547,14.547,0,0,0-14.529,14.529v22.059h-33.66a14.543,14.543,0,0,0-14.529,14.529V788.248a28.338,28.338,0,0,0,28.1,28.3h.06l.145.012H1230.11a4.218,4.218,0,0,0,0-8.436H1101.094a28.216,28.216,0,0,0,8.17-19.873v-98.6a4.215,4.215,0,1,0-8.429,0v98.6a19.9,19.9,0,0,1-19.77,19.873l-.109-.006a19.9,19.9,0,0,1-19.879-19.867V601.3a6.105,6.105,0,0,1,6.1-6.1h33.66v78.708a4.215,4.215,0,1,0,8.429,0v-109.2a6.1,6.1,0,0,1,6.1-6.093h210.591a6.1,6.1,0,0,1,6.1,6.093V788.248a19.9,19.9,0,0,1-19.879,19.873h-66.323a4.218,4.218,0,1,0,0,8.436h66.323a28.345,28.345,0,0,0,28.309-28.309V564.709A14.547,14.547,0,0,0,1325.955,550.18Z" transform="translate(-1052.646 -550.18)"/><path class="b" d="M1076.268,642.944h57.827a9.986,9.986,0,0,0,9.975-9.976V575.142a9.991,9.991,0,0,0-9.975-9.982h-57.827a9.991,9.991,0,0,0-9.975,9.982v57.826A9.986,9.986,0,0,0,1076.268,642.944Zm-1.546-67.8a1.545,1.545,0,0,1,1.546-1.546h57.827a1.545,1.545,0,0,1,1.546,1.546v57.826a1.549,1.549,0,0,1-1.546,1.546h-57.827a1.549,1.549,0,0,1-1.546-1.546Z" transform="translate(-983.889 -474.701)"/><path class="b" d="M1085.227,573.6h78.255a4.218,4.218,0,1,0,0-8.436h-78.255a4.218,4.218,0,0,0,0,8.436Z" transform="translate(-909.72 -474.701)"/><path class="b" d="M1085.227,579.333h78.255a4.215,4.215,0,1,0,0-8.43h-78.255a4.215,4.215,0,1,0,0,8.43Z" transform="translate(-909.72 -445.764)"/><path class="b" d="M1085.227,585.075h78.255a4.215,4.215,0,1,0,0-8.43h-78.255a4.215,4.215,0,1,0,0,8.43Z" transform="translate(-909.72 -416.832)"/><path class="b" d="M1070.507,598.208h167.144a4.215,4.215,0,1,0,0-8.43H1070.507a4.215,4.215,0,1,0,0,8.43Z" transform="translate(-983.889 -350.66)"/><path class="b" d="M1066.309,601.11V556.557a2.27,2.27,0,0,1,1.3-2.089,6.427,6.427,0,0,1,3.158-.725,6.724,6.724,0,0,1,3.78.894,11.176,11.176,0,0,1,2.881,3.847l13.249,25.6v-27.6a2.2,2.2,0,0,1,1.3-2.059,7.59,7.59,0,0,1,6.317,0,2.205,2.205,0,0,1,1.3,2.059v44.62a2.3,2.3,0,0,1-1.341,2.065,6.254,6.254,0,0,1-3.121.755,5.365,5.365,0,0,1-5.151-2.82l-14.758-27.6v27.6a2.305,2.305,0,0,1-1.334,2.065,6.3,6.3,0,0,1-3.129.755,6.2,6.2,0,0,1-3.152-.755A2.3,2.3,0,0,1,1066.309,601.11Z" transform="translate(-983.803 -532.227)"/><path class="b" d="M1073.187,601.11V556.557a2.343,2.343,0,0,1,1.171-2.059,4.948,4.948,0,0,1,2.741-.755h24.445a2.31,2.31,0,0,1,2.089,1.172,4.949,4.949,0,0,1,.725,2.675,5.086,5.086,0,0,1-.755,2.814,2.345,2.345,0,0,1-2.059,1.166h-19.432V575.3h10.434a2.414,2.414,0,0,1,2.065,1.063,4.239,4.239,0,0,1,.755,2.506,4.138,4.138,0,0,1-.724,2.373,2.379,2.379,0,0,1-2.1,1.063h-10.434v13.8h19.432a2.345,2.345,0,0,1,2.059,1.166,5.086,5.086,0,0,1,.755,2.814,4.986,4.986,0,0,1-.725,2.681,2.305,2.305,0,0,1-2.089,1.165H1077.1a4.95,4.95,0,0,1-2.741-.755A2.346,2.346,0,0,1,1073.187,601.11Z" transform="translate(-949.147 -532.227)"/><path class="b" d="M1079.088,557.312a2.993,2.993,0,0,1,1.854-2.5,7.584,7.584,0,0,1,3.84-1.069q2.472,0,2.953,1.788l10.845,37.21,5.839-23.895q.616-2.473,4.39-2.47c2.477,0,3.913.821,4.323,2.47l5.84,23.895,10.846-37.21q.479-1.785,2.953-1.788a7.571,7.571,0,0,1,3.841,1.069,3,3,0,0,1,1.854,2.5,2.665,2.665,0,0,1-.132.828l-13.594,43.182q-1.032,3.016-5.839,3.019a8.461,8.461,0,0,1-3.7-.791,3.338,3.338,0,0,1-1.992-2.229l-4.4-18.539-4.462,18.539a3.345,3.345,0,0,1-1.986,2.229,8.507,8.507,0,0,1-3.708.791,8.637,8.637,0,0,1-3.774-.791,3.569,3.569,0,0,1-2.065-2.229l-13.593-43.182A2.621,2.621,0,0,1,1079.088,557.312Z" transform="translate(-919.414 -532.227)"/><path class="b" d="M1089.3,596.319a5.355,5.355,0,0,1,1.2-3.194,3.393,3.393,0,0,1,2.711-1.606,3.526,3.526,0,0,1,2.024.852,24.465,24.465,0,0,1,2.2,1.89,10.007,10.007,0,0,0,3.055,1.89,10.956,10.956,0,0,0,4.39.857,9.517,9.517,0,0,0,5.495-1.51,5.068,5.068,0,0,0,2.193-4.463,6,6,0,0,0-1.195-3.671,9.642,9.642,0,0,0-3.159-2.682q-1.957-1.059-4.293-2.059c-1.558-.664-3.122-1.408-4.7-2.228a27.68,27.68,0,0,1-4.324-2.784,11.146,11.146,0,0,1-3.158-4.118,15.018,15.018,0,0,1,.278-12.385,11.277,11.277,0,0,1,3.943-4.39,18.4,18.4,0,0,1,5.29-2.3,23.553,23.553,0,0,1,5.972-.737,31.131,31.131,0,0,1,3.775.248,34.648,34.648,0,0,1,4.221.81,8.969,8.969,0,0,1,3.642,1.763,3.611,3.611,0,0,1,1.406,2.82,6.234,6.234,0,0,1-.96,3.164,2.921,2.921,0,0,1-2.609,1.631,12.792,12.792,0,0,1-3.363-1.3,14.089,14.089,0,0,0-6.111-1.3,9.949,9.949,0,0,0-5.73,1.408,4.6,4.6,0,0,0-.381,7.349,12.985,12.985,0,0,0,4.088,2.4q2.428.924,5.284,2.331a44.711,44.711,0,0,1,5.284,3.056,12.819,12.819,0,0,1,4.088,4.771,15.528,15.528,0,0,1,1.643,7.313q0,7.038-4.493,10.863t-11.843,3.829a22.1,22.1,0,0,1-11.19-2.681Q1089.291,599.48,1089.3,596.319Z" transform="translate(-867.975 -532.515)"/><text class="c" transform="translate(83.282 220.42)"><tspan x="0" y="0">INFO</tspan></text></g></g></svg>