<svg xmlns="http://www.w3.org/2000/svg" viewBox="0 0 341.744 341.744"><defs><style>.a{fill:#274274;stroke:#b3b3b3;stroke-miterlimit:10;stroke-width:0.5px;}.b{fill:#fff;}</style></defs><g transform="translate(-884.346 -255.887)"><rect class="a" width="341.244" height="341.244" transform="translate(884.596 256.137)"/><g transform="translate(895.537 332.911)"><path class="b" d="M1111.925,473.345a42.561,42.561,0,1,0-42.489-42.555A42.54,42.54,0,0,0,1111.925,473.345Z" transform="translate(-952.284 -388.223)"/><path class="b" d="M1157.57,403.468h-68.225c-12.2,0-22.186,11.184-22.186,24.9V496.9c0,.755.38,1.425.423,2.2H1179.3c.078-.779.393-1.449.393-2.2V428.372C1179.732,414.652,1169.744,403.468,1157.57,403.468Z" transform="translate(-963.763 -311.408)"/><path class="b" d="M1123.855,462.61a34.113,34.113,0,1,0-34.047-34.1A34.061,34.061,0,0,0,1123.855,462.61Z" transform="translate(-849.636 -357.174)"/><path class="b" d="M1160.478,406.6H1105.8c-9.812,0-17.826,8.967-17.826,20v54.9c0,.592.284,1.153.326,1.793h89.608c.042-.64.314-1.2.314-1.793V426.6C1178.267,415.571,1170.26,406.6,1160.478,406.6Z" transform="translate(-858.862 -295.606)"/><path class="b" d="M1085.926,462.61a34.113,34.113,0,1,0-34.059-34.1,34.066,34.066,0,0,0,34.059,34.1Z" transform="translate(-1040.81 -357.174)"/><path class="b" d="M1122.537,406.6h-54.729c-9.782,0-17.772,8.967-17.772,20v54.9c0,.592.284,1.153.339,1.793h89.609c.042-.64.3-1.2.3-1.793V426.6C1140.315,415.571,1132.308,406.6,1122.537,406.6Z" transform="translate(-1050.036 -295.606)"/></g></g></svg>